<svg
  xmlns="http://www.w3.org/2000/svg"
  width="24"
  height="24"
  viewBox="0 0 24 24"
  fill="none"
  stroke="currentColor"
  stroke-width="2"
  stroke-linecap="round"
  stroke-linejoin="round"
>
  <path d="m10.09 22.5-.95-7.64a2.87 2.87 0 0 0-5.73 0l2.86 7.64h11.46l2.86-7.64a2.87 2.87 0 0 0-5.73 0l-.95 7.64" />
  <path d="M10.09 4.36h.26" />
  <path d="M13.91 4.36h-.26a3.82 3.82 0 0 1 3.82 3.82" />
  <path d="M14.81 15.46a4 4 0 0 0 0-.59 1 1 0 0 0-5.72 0 4 4 0 0 0 0 .59h0" />
  <path d="M17.73 8.18v.17a2.86 2.86 0 0 1 1.91 2.7V13" />
  <path d="M4.36 13v-1.9a2.86 2.86 0 0 1 1.91-2.7A3.82 3.82 0 0 1 10 4.18" />
  <circle cx="12" cy="3.41" r="1.91" />
</svg>